<svg xmlns="http://www.w3.org/2000/svg" width="980" height="560" viewBox="0 0 980 560" role="img" aria-label="SEA Clinic audit colored line chart">
  <rect width="100%" height="100%" rx="26" fill="#FFFFFF"/>
  <text x="90" y="34" font-family="Inter, Arial, sans-serif" font-size="22" font-weight="700" fill="#111827">SEA Clinic public-data audit lines</text>
  <text x="90" y="56" font-family="Inter, Arial, sans-serif" font-size="13" fill="#6B7280">Inferred from public footprint; refresh with live APIs before client delivery.</text>
  <g font-family="Inter, Arial, sans-serif">
    <line x1="90" y1="460.0" x2="940" y2="460.0" stroke="#E5E7EB" stroke-width="1"/><text x="72" y="465.0" text-anchor="end" font-size="12" fill="#6B7280">0</text><line x1="90" y1="380.0" x2="940" y2="380.0" stroke="#E5E7EB" stroke-width="1"/><text x="72" y="385.0" text-anchor="end" font-size="12" fill="#6B7280">20</text><line x1="90" y1="300.0" x2="940" y2="300.0" stroke="#E5E7EB" stroke-width="1"/><text x="72" y="305.0" text-anchor="end" font-size="12" fill="#6B7280">40</text><line x1="90" y1="220.0" x2="940" y2="220.0" stroke="#E5E7EB" stroke-width="1"/><text x="72" y="225.0" text-anchor="end" font-size="12" fill="#6B7280">60</text><line x1="90" y1="140.0" x2="940" y2="140.0" stroke="#E5E7EB" stroke-width="1"/><text x="72" y="145.0" text-anchor="end" font-size="12" fill="#6B7280">80</text><line x1="90" y1="60.0" x2="940" y2="60.0" stroke="#E5E7EB" stroke-width="1"/><text x="72" y="65.0" text-anchor="end" font-size="12" fill="#6B7280">100</text>
    <text x="90.0" y="508" text-anchor="middle" font-size="13" fill="#374151">Awareness</text><line x1="90.0" y1="60" x2="90.0" y2="460" stroke="#F3F4F6" stroke-width="1"/><text x="260.0" y="508" text-anchor="middle" font-size="13" fill="#374151">Trust</text><line x1="260.0" y1="60" x2="260.0" y2="460" stroke="#F3F4F6" stroke-width="1"/><text x="430.0" y="508" text-anchor="middle" font-size="13" fill="#374151">Inquiry</text><line x1="430.0" y1="60" x2="430.0" y2="460" stroke="#F3F4F6" stroke-width="1"/><text x="600.0" y="508" text-anchor="middle" font-size="13" fill="#374151">Booking</text><line x1="600.0" y1="60" x2="600.0" y2="460" stroke="#F3F4F6" stroke-width="1"/><text x="770.0" y="508" text-anchor="middle" font-size="13" fill="#374151">Follow-up</text><line x1="770.0" y1="60" x2="770.0" y2="460" stroke="#F3F4F6" stroke-width="1"/><text x="940.0" y="508" text-anchor="middle" font-size="13" fill="#374151">Review</text><line x1="940.0" y1="60" x2="940.0" y2="460" stroke="#F3F4F6" stroke-width="1"/>
    <line x1="90" y1="460" x2="940" y2="460" stroke="#D1D5DB" stroke-width="1.5"/>
    <line x1="90" y1="60" x2="90" y2="460" stroke="#D1D5DB" stroke-width="1.5"/>
    <polyline points="90.0,172.0 260.0,132.0 430.0,216.0 600.0,276.0 770.0,324.0 940.0,200.0" fill="none" stroke="#10B981" stroke-width="4" stroke-linecap="round" stroke-linejoin="round"/><circle cx="90.0" cy="172.0" r="5" fill="#10B981" stroke="#fff" stroke-width="2"/>
<circle cx="260.0" cy="132.0" r="5" fill="#10B981" stroke="#fff" stroke-width="2"/>
<circle cx="430.0" cy="216.0" r="5" fill="#10B981" stroke="#fff" stroke-width="2"/>
<circle cx="600.0" cy="276.0" r="5" fill="#10B981" stroke="#fff" stroke-width="2"/>
<circle cx="770.0" cy="324.0" r="5" fill="#10B981" stroke="#fff" stroke-width="2"/>
<circle cx="940.0" cy="200.0" r="5" fill="#10B981" stroke="#fff" stroke-width="2"/><polyline points="90.0,204.0 260.0,180.0 430.0,184.0 600.0,228.0 770.0,292.0 940.0,252.0" fill="none" stroke="#F97316" stroke-width="4" stroke-linecap="round" stroke-linejoin="round"/><circle cx="90.0" cy="204.0" r="5" fill="#F97316" stroke="#fff" stroke-width="2"/>
<circle cx="260.0" cy="180.0" r="5" fill="#F97316" stroke="#fff" stroke-width="2"/>
<circle cx="430.0" cy="184.0" r="5" fill="#F97316" stroke="#fff" stroke-width="2"/>
<circle cx="600.0" cy="228.0" r="5" fill="#F97316" stroke="#fff" stroke-width="2"/>
<circle cx="770.0" cy="292.0" r="5" fill="#F97316" stroke="#fff" stroke-width="2"/>
<circle cx="940.0" cy="252.0" r="5" fill="#F97316" stroke="#fff" stroke-width="2"/><polyline points="90.0,240.0 260.0,188.0 430.0,112.0 600.0,96.0 770.0,124.0 940.0,144.0" fill="none" stroke="#7C3AED" stroke-width="4" stroke-linecap="round" stroke-linejoin="round"/><circle cx="90.0" cy="240.0" r="5" fill="#7C3AED" stroke="#fff" stroke-width="2"/>
<circle cx="260.0" cy="188.0" r="5" fill="#7C3AED" stroke="#fff" stroke-width="2"/>
<circle cx="430.0" cy="112.0" r="5" fill="#7C3AED" stroke="#fff" stroke-width="2"/>
<circle cx="600.0" cy="96.0" r="5" fill="#7C3AED" stroke="#fff" stroke-width="2"/>
<circle cx="770.0" cy="124.0" r="5" fill="#7C3AED" stroke="#fff" stroke-width="2"/>
<circle cx="940.0" cy="144.0" r="5" fill="#7C3AED" stroke="#fff" stroke-width="2"/><polyline points="90.0,324.0 260.0,348.0 430.0,192.0 600.0,168.0 770.0,156.0 940.0,264.0" fill="none" stroke="#EF4444" stroke-width="4" stroke-linecap="round" stroke-linejoin="round"/><circle cx="90.0" cy="324.0" r="5" fill="#EF4444" stroke="#fff" stroke-width="2"/>
<circle cx="260.0" cy="348.0" r="5" fill="#EF4444" stroke="#fff" stroke-width="2"/>
<circle cx="430.0" cy="192.0" r="5" fill="#EF4444" stroke="#fff" stroke-width="2"/>
<circle cx="600.0" cy="168.0" r="5" fill="#EF4444" stroke="#fff" stroke-width="2"/>
<circle cx="770.0" cy="156.0" r="5" fill="#EF4444" stroke="#fff" stroke-width="2"/>
<circle cx="940.0" cy="264.0" r="5" fill="#EF4444" stroke="#fff" stroke-width="2"/>
    <circle cx="90" cy="528" r="5" fill="#10B981"/><text x="104" y="532" font-size="13" fill="#111827">Current public footprint</text><circle cx="510" cy="528" r="5" fill="#F97316"/><text x="524" y="532" font-size="13" fill="#111827">Competitor pressure</text><circle cx="90" cy="552" r="5" fill="#7C3AED"/><text x="104" y="556" font-size="13" fill="#111827">Automation upside</text><circle cx="510" cy="552" r="5" fill="#EF4444"/><text x="524" y="556" font-size="13" fill="#111827">Lost lead risk</text>
  </g>
</svg>