<svg xmlns="http://www.w3.org/2000/svg" viewBox="0 0 608 608" fill="none">
  <g transform="translate(0 608) scale(0.1 -0.1)" fill="#ffffff" stroke="none">
    <path d="M2840 6074 c-1007 -67 -1920 -636 -2435 -1517 -201 -344 -326 -725 -387 -1177 -16 -125 -16 -555 0 -680 96 -712 367 -1286 837 -1769 491 -505 1082 -803 1800 -907 169 -25 601 -25 770 0 491 71 904 226 1290 482 702 466 1176 1190 1319 2014 33 191 40 283 40 520 0 237 -7 329 -40 520 -110 634 -413 1207 -875 1656 -471 457 -1042 737 -1704 835 -126 18 -484 32 -615 23z m380 -1722 c0 -90 -30 -301 -50 -356 -27 -72 -91 -138 -155 -159 -41 -15 -98 -17 -381 -17 l-333 0 -5 -52 c-3 -29 -17 -190 -31 -358 -39 -474 -44 -537 -70 -830 -13 -151 -45 -531 -71 -845 -25 -314 -48 -576 -50 -582 -3 -10 -86 -13 -375 -13 l-372 0 7 58 c6 52 19 214 76 892 11 135 34 396 50 580 37 426 57 665 75 910 8 107 17 205 19 218 l3 22 -433 0 c-407 0 -434 1 -434 18 0 54 32 277 46 319 40 121 117 198 234 234 14 4 526 8 1138 8 l1112 1 0 -48z"/>
  </g>
</svg>
